<svg width="186" height="186" viewBox="0 0 186 186" fill="none" xmlns="http://www.w3.org/2000/svg">
<path d="M15.8313 170.133C27.8122 182.132 41.208 188.185 54.0664 175.326C63.1999 166.193 60.8717 149.072 48.8908 137.073C36.9099 125.075 19.7712 122.746 10.6378 131.88C-2.22069 144.774 3.83246 158.17 15.8313 170.133ZM48.3536 137.575C57.3079 146.529 59.0988 159.406 52.2397 166.229C42.6049 175.864 32.5401 171.315 23.5858 162.325C14.6314 153.334 10.1005 143.27 19.6996 133.671C26.5407 126.83 39.3992 128.567 48.3536 137.575ZM170.133 15.7955C158.152 3.79665 144.756 -2.2565 131.88 10.602C122.764 19.7354 125.075 36.8562 137.073 48.855C149.072 60.8538 166.175 63.182 175.326 54.0306C188.221 41.1901 182.168 27.8122 170.133 15.8313V15.7955ZM137.575 48.3535C128.62 39.3992 126.83 26.5228 133.671 19.6996C143.324 10.0647 153.37 14.5956 162.325 23.5858C171.279 32.576 175.864 42.6407 166.229 52.2397C159.388 59.0988 146.565 57.4154 137.575 48.3535Z" fill="#292F33"/>
<path d="M93 177.565C109.725 177.565 126.075 172.605 139.982 163.313C153.888 154.021 164.727 140.814 171.128 125.362C177.528 109.909 179.203 92.9062 175.94 76.5022C172.677 60.0982 164.623 45.0301 152.796 33.2035C140.97 21.3769 125.902 13.3229 109.498 10.0599C93.0938 6.79694 76.0906 8.47161 60.6384 14.8721C45.1861 21.2727 31.9789 32.1116 22.6868 46.0182C13.3946 59.9248 8.435 76.2746 8.435 93C8.435 115.428 17.3445 136.937 33.2035 152.796C49.0625 168.655 70.572 177.565 93 177.565Z" fill="#292F33"/>
<path d="M160.659 93C160.659 106.382 156.691 119.463 149.257 130.589C141.822 141.716 131.255 150.388 118.892 155.509C106.529 160.63 92.9249 161.97 79.8003 159.359C66.6757 156.748 54.62 150.305 45.1577 140.842C35.6954 131.38 29.2515 119.324 26.6409 106.2C24.0302 93.0751 25.3701 79.4711 30.4911 67.108C35.612 54.7449 44.2841 44.178 55.4106 36.7435C66.5371 29.309 79.6183 25.3409 93 25.3409C110.943 25.3456 128.149 32.4755 140.837 45.163C153.525 57.8505 160.654 75.0571 160.659 93Z" fill="#F7DE22"/>
<path d="M100.181 56.502L87.6453 43.9659C88.2497 43.2446 88.6622 42.3824 88.8444 41.4591C89.0266 40.5359 88.9727 39.5816 88.6877 38.6847C88.4026 37.7879 87.8957 36.9775 87.2139 36.3289C86.5321 35.6803 85.6975 35.2144 84.7875 34.9744C83.8776 34.7344 82.9218 34.7281 82.0088 34.9561C81.0958 35.1842 80.2551 35.6391 79.5649 36.2787C78.8746 36.9183 78.3571 37.7219 78.0603 38.615C77.7635 39.508 77.697 40.4615 77.8671 41.3871C76.9416 41.217 75.9881 41.2834 75.095 41.5802C74.202 41.877 73.3984 42.3945 72.7588 43.0848C72.1192 43.7751 71.6642 44.6157 71.4362 45.5287C71.2082 46.4417 71.2145 47.3975 71.4545 48.3075C71.6944 49.2174 72.1604 50.052 72.809 50.7338C73.4576 51.4156 74.2679 51.9226 75.1648 52.2076C76.0616 52.4926 77.016 52.5466 77.9392 52.3643C78.8624 52.1821 79.7247 51.7696 80.446 51.1652L93.0896 63.7909L100.181 56.502Z" fill="#EEC262"/>
<path d="M141.103 104.623C144.685 101.041 153.782 85.5858 141.21 72.996C132.525 64.2207 125.361 64.74 112.216 61.4807C106.843 59.6898 99.7874 53.1889 97.9965 51.398C96.2057 53.1889 96.8146 59.7614 96.8146 59.7614C96.8146 59.7614 88.9884 60.4061 87.1797 62.197C88.9705 63.9879 97.3339 71.9035 98.8024 75.6106C102.724 88.1467 102.277 94.4327 111.052 103.19C125.379 117.517 137.503 108.222 141.103 104.623Z" fill="#C1694F"/>
<path d="M49.8758 85.5321C49.8758 95.1491 65.2952 102.939 55.6961 102.939C51.0777 102.942 46.6467 101.113 43.3749 97.8533C41.7618 96.2286 40.4785 94.3068 39.5962 92.1941C38.4847 89.5445 38.0463 86.6609 38.3203 83.8007C38.5943 80.9405 39.572 78.1925 41.1662 75.8021C42.7604 73.4116 44.9216 71.453 47.4569 70.1009C49.9922 68.7488 52.8228 68.0453 55.6961 68.0532C65.2952 68.0532 49.8758 75.9151 49.8758 85.5321ZM93.1253 132.739C101.077 136.572 113.702 126.937 109.852 134.906C107.929 138.601 104.643 141.4 100.69 142.711C96.7377 144.022 92.4297 143.742 88.6805 141.929C84.9313 140.116 82.036 136.914 80.6089 133.001C79.1819 129.089 79.3354 124.774 81.037 120.973C84.8336 113.022 85.1381 128.943 93.1253 132.739Z" fill="#77B255"/>
<path d="M78.082 97.9786C80.0483 97.9645 81.9663 97.3685 83.5943 96.2658C85.2224 95.1632 86.4874 93.6031 87.2301 91.7825C87.9728 89.9618 88.1598 87.9621 87.7675 86.0353C87.3753 84.1085 86.4213 82.341 85.026 80.9556C83.6306 79.5702 81.8563 78.629 79.9268 78.2505C77.9972 77.8721 75.9989 78.0734 74.1836 78.8291C72.3683 79.5848 70.8174 80.8611 69.7264 82.497C68.6354 84.1328 68.0532 86.0551 68.0532 88.0214C68.0531 89.335 68.313 90.6357 68.8179 91.8485C69.3228 93.0612 70.0626 94.1621 70.9949 95.0877C71.9271 96.0132 73.0332 96.7452 74.2496 97.2413C75.4659 97.7375 76.7684 97.9881 78.082 97.9786Z" fill="#F4900C"/>
<path d="M122.854 127.815C123.839 127.815 124.803 127.522 125.622 126.974C126.441 126.426 127.079 125.648 127.455 124.737C127.831 123.826 127.929 122.824 127.735 121.858C127.542 120.892 127.066 120.005 126.368 119.309C125.67 118.614 124.781 118.141 123.814 117.951C122.847 117.761 121.846 117.862 120.936 118.241C120.027 118.621 119.25 119.262 118.706 120.083C118.161 120.904 117.872 121.868 117.875 122.854C117.875 123.507 118.004 124.153 118.255 124.756C118.505 125.359 118.872 125.907 119.335 126.368C119.797 126.829 120.346 127.194 120.95 127.442C121.554 127.69 122.201 127.817 122.854 127.815Z" fill="#F4900C"/>
<path d="M58.1675 122.854C59.153 122.857 60.1173 122.568 60.9384 122.023C61.7594 121.479 62.4004 120.702 62.7799 119.793C63.1595 118.883 63.2606 117.882 63.0706 116.915C62.8805 115.948 62.4078 115.059 61.7122 114.361C61.0166 113.663 60.1296 113.187 59.1633 112.994C58.1971 112.8 57.1951 112.898 56.2844 113.274C55.3736 113.65 54.595 114.288 54.0471 115.107C53.4993 115.926 53.2068 116.89 53.2068 117.875C53.2068 119.193 53.7289 120.456 54.6587 121.389C55.5885 122.322 56.8502 122.849 58.1675 122.854Z" fill="#F4900C"/>
</svg>
