<svg width="482" height="128" viewBox="0 0 482 128" fill="none" xmlns="http://www.w3.org/2000/svg">
<path d="M29.5996 80.8758C29.5996 85.1521 31.0095 88.47 33.8292 90.8295C36.6489 93.189 39.6453 94.3704 42.8185 94.3736C46.006 94.3706 49.1168 93.397 51.7355 91.5826C54.5022 89.7251 56.7427 88.7956 58.457 88.794C61.4759 88.794 65.1511 91.4583 69.4827 96.7868C71.7979 99.7029 72.9563 102.317 72.9579 104.628C72.9579 108.45 70.1889 112.019 64.6507 115.335C58.9101 119.358 51.8608 121.368 43.5029 121.367C34.1377 121.367 25.1243 117.998 16.4627 111.261C12.332 108.044 8.95798 103.746 6.34071 98.3675C3.72345 92.9893 2.41402 87.0545 2.41241 80.563C2.41241 74.0796 3.72185 68.1977 6.34071 62.9173C8.95958 57.6369 12.3336 53.3863 16.4627 50.1654C24.8174 43.5297 33.7296 40.2118 43.1993 40.2118C46.9824 40.2052 50.7471 40.7383 54.3793 41.7949C58.0039 42.8504 60.6726 43.8809 62.3853 44.8866L64.7953 46.3952C66.6092 47.6014 68.0191 48.5566 69.0248 49.2608C71.6437 51.2722 72.9531 53.5595 72.9531 56.1227C72.9531 58.6859 71.8959 61.5732 69.7816 64.7844C66.1585 70.3343 62.6841 73.1092 59.3583 73.1092C57.4448 73.1092 54.7255 72.0032 51.2005 69.7913C49.3881 68.083 46.795 67.2289 43.421 67.2289C40.047 67.2289 36.9003 68.4319 33.981 70.8379C31.0585 73.2584 29.598 76.6043 29.5996 80.8758Z" fill="#F14C18"/>
<path d="M183.828 51.0917C192.287 43.2497 201.954 39.3287 212.83 39.3287C223.705 39.3287 233.323 43.2217 241.682 51.0075C250.037 58.7982 254.214 68.7262 254.214 80.7916C254.214 89.1324 252.049 96.547 247.719 103.035C243.389 109.523 238.127 114.299 231.934 117.361C225.743 120.444 219.324 121.98 212.678 121.971C206.031 121.961 199.586 120.327 193.342 117.069C187.097 113.805 181.836 108.98 177.559 102.592C173.282 96.2053 171.142 88.9913 171.139 80.9504C171.139 68.8866 175.368 58.9337 183.828 51.0917ZM202.71 91.7341C205.923 94.1979 209.196 95.4298 212.528 95.4298C215.86 95.4298 219.184 94.1763 222.498 91.6692C225.819 89.1573 227.481 85.4368 227.482 80.5077C227.484 75.5786 225.923 71.9094 222.8 69.5002C219.676 67.0941 216.302 65.8911 212.678 65.8911C209.053 65.8911 205.679 67.1471 202.556 69.659C199.432 72.174 197.871 75.8689 197.873 80.7435C197.875 85.6181 199.487 89.2816 202.71 91.7341Z" fill="#F14C18"/>
<path d="M83.9042 119.122C89.8304 125.038 96.4506 128.024 102.808 121.679C107.32 117.175 106.182 108.725 100.244 102.804C94.3057 96.883 85.8539 95.7426 81.3399 100.247C74.9823 106.591 77.9659 113.201 83.9042 119.122ZM100.015 103.033C104.459 107.469 105.317 113.809 101.943 117.19C97.176 121.946 92.209 119.706 87.7626 115.265C83.3161 110.823 81.0724 105.882 85.8346 101.11C89.2086 97.742 95.5662 98.5913 100.015 103.035V103.033ZM160.19 42.957C154.264 37.0382 147.646 34.0548 141.286 40.3994C136.775 44.9035 137.912 53.351 143.851 59.2698C149.789 65.1886 158.238 66.3363 162.755 61.8298C169.112 55.4827 166.129 48.8734 160.19 42.957ZM144.077 59.0436C139.631 54.6045 138.775 48.2695 142.149 44.889C146.916 40.1299 151.881 42.3699 156.33 46.8138C160.778 51.2578 163.02 56.2093 158.257 60.9684C154.883 64.3369 148.526 63.4875 144.077 59.0436Z" fill="#292F33"/>
<path d="M122.047 122.769C130.315 122.771 138.398 120.324 145.273 115.74C152.148 111.155 157.507 104.638 160.672 97.0123C163.837 89.3868 164.666 80.9956 163.054 72.8999C161.441 64.8041 157.461 57.3674 151.615 51.5303C145.769 45.6933 138.321 41.7179 130.212 40.1071C122.103 38.4962 113.698 39.3223 106.059 42.4807C98.4208 45.6391 91.8919 50.988 87.2983 57.851C82.7048 64.714 80.253 72.7828 80.253 81.037C80.253 92.1039 84.6561 102.718 92.4938 110.544C100.332 118.37 110.962 122.767 122.047 122.769Z" fill="#292F33"/>
<path d="M155.486 81.037C155.486 87.6403 153.525 94.0955 149.851 99.5861C146.177 105.077 140.954 109.356 134.843 111.883C128.733 114.411 122.009 115.072 115.521 113.784C109.034 112.496 103.075 109.316 98.3984 104.647C93.7214 99.9776 90.5364 94.0285 89.2461 87.5521C87.9559 81.0756 88.6183 74.3627 91.1497 68.2621C93.6811 62.1615 97.9677 56.9474 103.467 53.2791C108.967 49.6108 115.433 47.6531 122.047 47.6536C130.916 47.6536 139.421 51.1707 145.692 57.4314C151.963 63.692 155.486 72.1832 155.486 81.037Z" fill="#F7DE22"/>
<path d="M125.599 63.0376L119.358 56.8036C119.655 56.4478 119.858 56.0229 119.947 55.5681C120.036 55.1134 120.009 54.6436 119.868 54.2021C119.727 53.7606 119.477 53.3618 119.14 53.0425C118.804 52.7232 118.392 52.4937 117.944 52.3754C117.495 52.257 117.023 52.2535 116.573 52.3653C116.123 52.4771 115.708 52.7005 115.367 53.0148C115.026 53.3292 114.77 53.7243 114.622 54.1637C114.475 54.603 114.441 55.0724 114.523 55.5284C114.065 55.4434 113.594 55.4755 113.152 55.6215C112.71 55.7675 112.312 56.0227 111.995 56.3635C111.679 56.7042 111.454 57.1194 111.341 57.5703C111.229 58.0212 111.232 58.4933 111.351 58.9426C111.471 59.3918 111.702 59.8036 112.023 60.1397C112.345 60.4758 112.746 60.7252 113.19 60.8647C113.634 61.0042 114.107 61.0293 114.563 60.9376C115.019 60.846 115.445 60.6405 115.8 60.3404L122.045 66.572L125.599 63.0376Z" fill="#EEC262"/>
<path d="M145.822 86.7729C147.598 84.9973 152.088 77.3895 145.872 71.1699C141.534 66.8391 138.045 67.0797 131.545 65.4821C128.88 64.5919 125.402 61.3919 124.515 60.5089C123.626 61.3943 123.937 64.64 123.937 64.64C123.937 64.64 120.064 64.9528 119.175 65.843C120.061 66.7284 124.192 70.6286 124.915 72.4571C126.858 78.6141 126.638 81.7468 130.974 86.0728C138.083 93.1681 144.046 88.5486 145.822 86.7753V86.7729Z" fill="#C1694F"/>
<path d="M100.738 77.3558C100.738 82.1005 108.358 85.9477 103.608 85.9477C101.326 85.9477 99.1368 85.0425 97.5229 83.4312C95.9089 81.8199 95.0022 79.6345 95.0022 77.3558C95.0022 75.0771 95.9089 72.8917 97.5229 71.2804C99.1368 69.6691 101.326 68.7639 103.608 68.7639C108.358 68.7639 100.738 72.6111 100.738 77.3558ZM122.093 100.651C126.026 102.544 132.263 97.7877 130.364 101.714C129.912 102.648 129.281 103.484 128.505 104.174C127.73 104.864 126.826 105.395 125.845 105.737C124.864 106.078 123.826 106.223 122.789 106.164C121.752 106.104 120.736 105.842 119.801 105.391C118.866 104.94 118.028 104.309 117.337 103.535C116.646 102.761 116.114 101.859 115.772 100.879C115.43 99.9001 115.285 98.8632 115.344 97.8278C115.404 96.7925 115.667 95.7789 116.119 94.8451C118.013 90.9185 118.16 98.7573 122.091 100.651H122.093Z" fill="#77B255"/>
<path d="M114.67 83.4887C115.643 83.4887 116.594 83.2007 117.403 82.6611C118.212 82.1215 118.842 81.3546 119.215 80.4573C119.587 79.56 119.684 78.5726 119.494 77.62C119.305 76.6674 118.836 75.7924 118.148 75.1057C117.46 74.4189 116.584 73.9512 115.63 73.7617C114.676 73.5722 113.687 73.6695 112.788 74.0412C111.889 74.4128 111.121 75.0423 110.58 75.8498C110.04 76.6574 109.751 77.6068 109.751 78.578C109.751 79.223 109.878 79.8617 110.125 80.4577C110.372 81.0536 110.735 81.5951 111.191 82.0511C111.648 82.5072 112.191 82.8689 112.787 83.1156C113.384 83.3623 114.024 83.4891 114.67 83.4887Z" fill="#F4900C"/>
<path d="M136.799 98.2208C137.285 98.2208 137.76 98.0768 138.165 97.8072C138.569 97.5375 138.884 97.1542 139.07 96.7058C139.256 96.2573 139.305 95.7639 139.21 95.2878C139.115 94.8118 138.881 94.3745 138.537 94.0313C138.193 93.6881 137.755 93.4543 137.278 93.3596C136.802 93.2649 136.307 93.3135 135.858 93.4993C135.409 93.685 135.025 93.9996 134.755 94.4032C134.485 94.8067 134.341 95.2812 134.341 95.7666C134.341 96.4173 134.6 97.0411 135.061 97.5012C135.522 97.9614 136.147 98.2201 136.799 98.2208Z" fill="#F4900C"/>
<path d="M104.835 95.7594C105.322 95.7599 105.798 95.6162 106.203 95.3464C106.608 95.0767 106.924 94.693 107.11 94.2441C107.297 93.7951 107.346 93.301 107.251 92.8242C107.156 92.3475 106.922 91.9095 106.577 91.5658C106.233 91.2221 105.794 90.9881 105.317 90.8934C104.839 90.7987 104.344 90.8476 103.895 91.0338C103.445 91.22 103.061 91.5353 102.79 91.9396C102.52 92.3439 102.376 92.8192 102.377 93.3053C102.377 93.9562 102.636 94.5804 103.097 95.0406C103.558 95.5009 104.183 95.7594 104.835 95.7594Z" fill="#F4900C"/>
<path d="M310.864 80.8012L330.956 97.3883C333.47 99.5008 335.056 101.11 335.713 102.215C336.37 103.32 336.697 104.375 336.694 105.381C336.694 107.787 335.133 111.055 332.011 115.186C328.586 119.409 325.565 121.52 322.95 121.518C320.732 121.518 317.661 120.06 313.734 117.144L312.223 116.09C309.908 114.18 306.333 110.836 301.498 106.06C296.664 101.283 292.989 97.8903 290.472 95.8821V107.494C290.5 109.23 290.424 110.967 290.246 112.695C290.095 113.853 289.613 115.186 288.8 116.692C287.492 119.308 283.615 120.615 277.169 120.614C270.825 120.614 266.948 119.257 265.539 116.543C264.91 115.283 264.477 113.936 264.254 112.546C264.075 110.817 263.999 109.08 264.028 107.342V17.0105C263.999 15.2728 264.075 13.535 264.254 11.8063C264.477 10.417 264.91 9.06953 265.539 7.80993C266.946 5.09594 270.873 3.73895 277.319 3.73895C282.153 3.73895 285.578 4.59309 287.593 6.30136C289.307 7.71449 290.216 9.92642 290.321 12.9371C290.419 13.8418 290.469 15.2493 290.472 17.1597V64.9624C292.285 63.4562 295.029 60.8898 298.705 57.2632C302.381 53.6365 305.125 51.0701 306.938 49.5639L308.75 48.3609C312.273 45.6469 315.294 44.2891 317.812 44.2875C320.329 44.2859 323.221 46.3222 326.488 50.3964C329.76 54.4674 331.398 57.6594 331.399 59.9723C331.401 62.2853 329.537 65.0001 325.808 68.1167L310.864 80.8012Z" fill="#F14C18"/>
<path d="M369.851 26.4349C369.104 27.8993 367.766 28.9299 365.838 29.5266C363.91 30.1233 361.367 30.4249 358.21 30.4313C355.039 30.4313 352.496 30.1297 350.583 29.5266C348.669 28.9235 347.335 27.8681 346.58 26.3603C345.823 24.8509 345.369 23.5188 345.218 22.3639C345.04 20.6351 344.964 18.8974 344.992 17.1597C344.964 15.4228 345.04 13.6859 345.218 11.9579C345.431 10.6127 345.865 9.31198 346.503 8.10827C347.913 5.39429 351.841 4.03729 358.285 4.03729C364.63 4.03729 368.457 5.39429 369.766 8.10827C370.571 9.61684 371.051 10.9522 371.212 12.1047C371.391 13.8334 371.467 15.5712 371.439 17.3089C371.467 19.0458 371.392 20.7828 371.212 22.5107C371.061 23.6704 370.607 24.9784 369.851 26.4349ZM345.001 54.4096C344.974 52.672 345.05 50.9342 345.228 49.2054C345.452 47.8164 345.885 46.4692 346.512 45.209C347.923 42.5961 351.85 41.2896 358.295 41.2896C363.129 41.2896 366.553 42.1438 368.566 43.852C370.277 45.262 371.184 47.4274 371.287 50.3483C371.387 51.354 371.436 52.8112 371.436 54.72V107.494C371.465 109.23 371.389 110.967 371.21 112.695C371.061 113.853 370.579 115.186 369.764 116.692C368.453 119.308 364.575 120.615 358.131 120.614C351.788 120.614 347.911 119.257 346.5 116.543C345.795 115.035 345.367 113.728 345.216 112.621C345.034 110.867 344.958 109.105 344.989 107.342L345.001 54.4096Z" fill="#F14C18"/>
<path d="M429.744 67.8304L419.923 67.2289V88.0385C419.923 90.7541 420.351 92.715 421.208 93.9212C422.064 95.1274 423.676 95.7305 426.042 95.7305C427.857 95.705 429.673 95.7805 431.479 95.9567C432.896 96.1632 434.257 96.6499 435.482 97.3883C437.797 98.6972 438.956 102.066 438.957 107.494C438.957 113.826 437.548 117.697 434.728 119.105C433.466 119.731 432.116 120.163 430.725 120.387C429.044 120.564 427.354 120.64 425.664 120.614C415.19 120.614 407.237 118.251 401.805 113.525C396.373 108.8 393.653 100.807 393.647 89.5471V67.2289C391.597 67.5401 389.526 67.6914 387.453 67.6812C386.4 67.6999 385.356 67.4787 384.401 67.0342C383.446 66.5898 382.605 65.9339 381.942 65.1164C380.478 63.4081 379.748 60.4928 379.751 56.3705C379.754 52.2482 380.006 49.2568 380.505 47.3961C381.01 45.5387 381.715 44.2065 382.621 43.3997C384.228 42.0957 386.242 41.4428 388.663 41.4412L393.647 42.0427V26.5095C393.618 24.7974 393.694 23.0852 393.874 21.3823C394.026 20.2771 394.508 19.0741 395.32 17.7732C396.626 15.2614 400.503 14.0046 406.95 14.003C413.798 14.003 417.876 15.8629 419.186 19.5826C419.69 21.1866 419.942 23.753 419.94 27.2818V42.0596C424.371 41.6602 427.72 41.4597 429.987 41.4581C431.702 41.4308 433.417 41.5063 435.123 41.6842C436.28 41.8334 437.614 42.3106 439.126 43.1158C441.743 44.4247 443.052 48.2952 443.052 54.7272C443.052 61.0631 441.693 64.9344 438.974 66.3411C437.712 66.9665 436.363 67.3981 434.971 67.6211C433.235 67.7949 431.489 67.8648 429.744 67.8304Z" fill="#F14C18"/>
<path d="M452.853 97.6144C453.316 96.6754 453.962 95.8381 454.753 95.1518C455.545 94.4655 456.465 93.9441 457.461 93.618C459.523 92.9171 462.745 92.5658 467.128 92.5642C471.511 92.5626 474.683 93.5178 476.645 95.4298C478.61 97.3401 479.592 100.356 479.59 104.476V106.882C479.62 108.67 479.545 110.457 479.363 112.236C479.212 113.394 478.73 114.777 477.917 116.384C476.311 119.3 472.459 120.758 466.362 120.758C460.264 120.758 456.239 119.779 454.285 117.823C452.32 115.864 451.338 112.069 451.34 106.437C451.342 102.517 451.846 99.5761 452.853 97.6144ZM473.097 80.0505C471.184 80.5558 468.613 80.8076 465.385 80.806C462.158 80.8044 459.587 80.5526 457.673 80.0505C455.758 79.5501 454.424 78.6454 453.67 77.3365C452.917 76.0277 452.468 74.8704 452.323 73.8647C452.143 72.3123 452.068 70.7498 452.097 69.1874V21.3822C452.07 19.7959 452.145 18.2094 452.323 16.6328C452.476 15.5757 452.958 14.3944 453.769 13.0887C454.581 11.783 455.94 10.8527 457.847 10.2977C459.761 9.74595 462.331 9.47006 465.559 9.47006C468.787 9.47006 471.357 9.74595 473.271 10.2977C475.185 10.8511 476.519 11.8063 477.274 13.1633C478.029 14.5203 478.483 15.7273 478.636 16.7843C478.814 18.361 478.889 19.9474 478.862 21.5338V69.3389C478.891 70.9005 478.816 72.4623 478.636 74.0138C478.483 75.0195 478.001 76.1504 477.19 77.4063C476.378 78.6622 475.013 79.542 473.095 80.0457L473.097 80.0505Z" fill="#F14C18"/>
</svg>
