<svg width="254" height="254" viewBox="0 0 254 254" fill="none" xmlns="http://www.w3.org/2000/svg">
<path d="M10.0736 173.904C17.3685 181.199 25.527 184.887 33.3553 177.058C38.9077 171.501 37.4955 161.077 30.1955 153.777C22.8956 146.477 12.4765 145.064 6.91388 150.617C-0.914399 158.445 2.77368 166.624 10.0736 173.904ZM29.9161 154.056C35.3924 159.532 36.449 167.35 32.2834 171.521C26.416 177.389 20.32 174.625 14.8234 169.164C9.32688 163.703 6.604 157.561 12.4511 151.689C16.6218 147.523 24.4399 148.58 29.9161 154.056ZM104.018 79.949C96.7232 72.6491 88.5698 68.9661 80.7415 76.7944C75.184 82.3519 76.5962 92.771 83.9013 100.076C91.2063 107.381 101.6 108.788 107.188 103.231C115.016 95.4024 111.333 87.249 104.028 79.949H104.018ZM84.1756 99.7915C78.7044 94.3153 77.6427 86.5022 81.8083 82.3316C87.6757 76.4642 93.792 79.2277 99.2733 84.6988C104.755 90.17 107.513 96.2914 101.641 102.159C97.475 106.329 89.6569 105.268 84.1756 99.7915Z" fill="#292F33"/>
<path d="M57.0484 178.405C67.2312 178.409 77.1865 175.393 85.6551 169.738C94.1237 164.084 100.725 156.045 104.625 146.639C108.524 137.232 109.547 126.88 107.563 116.893C105.579 106.905 100.677 97.7304 93.4783 90.5286C86.2794 83.3269 77.1064 78.4218 67.1196 76.4338C57.1328 74.4457 46.7807 75.464 37.3726 79.3599C27.9646 83.2557 19.9232 89.8541 14.2655 98.3205C8.60782 106.787 5.58801 116.741 5.58801 126.924C5.58801 140.574 11.0091 153.665 20.6592 163.319C30.3093 172.973 43.3984 178.399 57.0484 178.405Z" fill="#292F33"/>
<path d="M98.2269 126.924C98.2269 135.069 95.8114 143.032 91.2858 149.805C86.7603 156.577 80.328 161.856 72.8024 164.973C65.2768 168.09 56.9959 168.905 49.0069 167.316C41.018 165.726 33.6798 161.803 27.9203 156.043C22.1609 150.283 18.239 142.944 16.6505 134.955C15.062 126.966 15.8783 118.685 18.9961 111.16C22.114 103.635 27.3934 97.2032 34.1667 92.6785C40.9399 88.1538 48.9028 85.7392 57.0484 85.7402C67.9701 85.7416 78.444 90.0812 86.1663 97.8044C93.8886 105.528 98.2269 116.002 98.2269 126.924Z" fill="#F7DE22"/>
<path d="M61.4223 104.714L53.7311 97.028C54.096 96.5897 54.3446 96.0665 54.4538 95.5067C54.563 94.9469 54.5293 94.3686 54.3559 93.8253C54.1826 93.282 53.875 92.7911 53.4618 92.3981C53.0485 92.005 52.5429 91.7224 51.9915 91.5765C51.4402 91.4305 50.861 91.4259 50.3074 91.563C49.7538 91.7001 49.2437 91.9745 48.8242 92.3609C48.4047 92.7472 48.0893 93.2331 47.9072 93.7736C47.7252 94.3141 47.6823 94.8917 47.7825 95.4532C47.0674 95.3294 46.3314 95.4342 45.6793 95.7529C45.2509 95.9659 44.8724 96.267 44.5686 96.6366C44.2648 97.0062 44.0425 97.4358 43.9165 97.8973C43.7904 98.3588 43.7633 98.8418 43.837 99.3145C43.9108 99.7872 44.0836 100.239 44.3442 100.64C44.6048 101.041 44.9473 101.383 45.3493 101.642C45.7512 101.902 46.2034 102.074 46.6763 102.146C47.1493 102.218 47.6321 102.19 48.0933 102.063C48.5544 101.935 48.9835 101.712 49.3522 101.407L57.0433 109.093L61.4223 104.714Z" fill="#EEC262"/>
<path d="M86.3245 134C88.5139 131.811 94.0511 122.413 86.3905 114.752C81.0514 109.413 76.7385 109.718 68.7426 107.737C65.4609 106.639 61.1785 102.692 60.1066 101.6C59.0093 102.692 59.3954 106.68 59.3954 106.68C59.3954 106.68 54.6253 107.071 53.528 108.163C54.6253 109.256 59.7103 114.066 60.5993 116.322C62.992 123.942 62.7177 127.782 68.0619 133.116C76.8147 141.869 84.1604 136.164 86.3499 133.985L86.3245 134Z" fill="#C1694F"/>
<path d="M30.8 122.382C30.8 128.234 40.1879 132.979 34.356 132.979C32.9619 132.98 31.5812 132.707 30.292 132.177C27.6953 131.097 25.6315 129.033 24.5516 126.436C23.7491 124.5 23.5393 122.369 23.949 120.313C24.3587 118.258 25.3693 116.37 26.8529 114.889C27.8344 113.902 29.0038 113.121 30.292 112.593C31.5801 112.058 32.9613 111.784 34.356 111.785C40.1879 111.785 30.8 116.53 30.8 122.382ZM57.0992 151.12C61.9404 153.452 69.6265 147.564 67.2897 152.43C66.1453 154.723 64.1442 156.472 61.7197 157.299C59.2951 158.127 56.6422 157.966 54.3353 156.852C52.0283 155.738 50.2529 153.76 49.3935 151.347C48.5341 148.933 48.6598 146.278 49.7433 143.957C52.0801 139.111 52.2579 148.783 57.0992 151.12Z" fill="#77B255"/>
<path d="M47.9603 129.951C49.1579 129.951 50.3286 129.596 51.3244 128.931C52.3202 128.266 53.0964 127.32 53.5547 126.213C54.013 125.107 54.1329 123.889 53.8993 122.715C53.6656 121.54 53.0889 120.461 52.2421 119.614C51.3952 118.767 50.3162 118.191 49.1416 117.957C47.967 117.723 46.7495 117.843 45.643 118.302C44.5365 118.76 43.5908 119.536 42.9254 120.532C42.26 121.528 41.9049 122.698 41.9049 123.896C41.9042 124.692 42.0604 125.479 42.3645 126.214C42.6686 126.949 43.1146 127.617 43.677 128.179C44.2394 128.742 44.9072 129.188 45.6422 129.492C46.3772 129.796 47.1649 129.952 47.9603 129.951Z" fill="#F4900C"/>
<path d="M75.2145 148.123C75.8173 148.123 76.4066 147.944 76.9078 147.609C77.4091 147.274 77.7998 146.798 78.0304 146.241C78.2611 145.684 78.3215 145.071 78.2039 144.48C78.0863 143.889 77.796 143.346 77.3697 142.919C76.9435 142.493 76.4004 142.203 75.8091 142.085C75.2179 141.968 74.605 142.028 74.0481 142.259C73.4911 142.489 73.0151 142.88 72.6802 143.381C72.3452 143.883 72.1665 144.472 72.1665 145.075C72.1665 145.883 72.4876 146.658 73.0592 147.23C73.6308 147.802 74.4061 148.123 75.2145 148.123Z" fill="#F4900C"/>
<path d="M35.8495 145.095C36.4524 145.095 37.0417 144.916 37.5429 144.581C38.0442 144.246 38.4348 143.77 38.6655 143.213C38.8962 142.656 38.9566 142.044 38.839 141.452C38.7214 140.861 38.4311 140.318 38.0048 139.892C37.5785 139.465 37.0354 139.175 36.4442 139.058C35.8529 138.94 35.2401 139 34.6831 139.231C34.1262 139.462 33.6501 139.852 33.3152 140.354C32.9803 140.855 32.8015 141.444 32.8015 142.047C32.8015 142.855 33.1227 143.631 33.6943 144.202C34.2659 144.774 35.0412 145.095 35.8495 145.095Z" fill="#F4900C"/>
<path d="M149.068 93.4212C148.363 94.7759 147.117 95.7377 145.329 96.3066C143.013 96.9393 140.616 97.2252 138.217 97.155C135.817 97.2252 133.42 96.9393 131.105 96.3066C130.311 96.1005 129.569 95.7311 128.926 95.222C128.283 94.7129 127.753 94.0754 127.371 93.3501C126.746 92.1815 126.317 90.9185 126.101 89.6112C125.932 87.9964 125.861 86.373 125.887 84.7496C125.861 83.1263 125.933 81.5029 126.101 79.8881C126.299 78.6329 126.704 77.4193 127.3 76.2965C128.614 73.7565 132.278 72.4865 138.293 72.4865C144.213 72.4865 147.784 73.7565 149.007 76.2965C149.671 77.4515 150.123 78.716 150.343 80.0303C150.511 81.6451 150.582 83.2685 150.556 84.8919C150.582 86.5152 150.511 88.1387 150.343 89.7534C150.131 91.0402 149.7 92.2809 149.068 93.4212ZM125.877 119.563C125.851 117.94 125.922 116.316 126.091 114.701C126.3 113.403 126.704 112.145 127.29 110.968C128.604 108.522 132.268 107.301 138.283 107.305C142.794 107.305 145.989 108.102 147.869 109.698C149.464 111.012 150.31 113.032 150.409 115.758C150.5 116.698 150.551 118.064 150.551 119.822V169.164C150.577 170.787 150.506 172.411 150.338 174.026C150.121 175.354 149.667 176.633 148.996 177.8C147.77 180.242 144.152 181.464 138.14 181.468C132.221 181.468 128.604 180.198 127.29 177.658C126.711 176.503 126.307 175.269 126.091 173.995C125.919 172.357 125.848 170.709 125.877 169.062V119.563Z" fill="#F14C18"/>
<path d="M204.948 132.11L195.804 131.547V150.998C195.804 153.535 196.203 155.367 197.002 156.494C197.802 157.622 199.305 158.186 201.513 158.186C203.209 158.161 204.905 158.23 206.593 158.394C207.916 158.589 209.187 159.045 210.332 159.736C212.493 160.955 213.573 164.103 213.573 169.179C213.573 175.099 212.258 178.716 209.626 180.03C208.449 180.615 207.19 181.019 205.892 181.229C204.323 181.396 202.746 181.467 201.168 181.442C191.394 181.442 183.971 179.241 178.897 174.838C173.824 170.436 171.284 162.965 171.277 152.425V131.572C169.366 131.862 167.435 132.003 165.501 131.994C164.518 132.012 163.543 131.805 162.651 131.39C161.759 130.974 160.974 130.361 160.355 129.596C159.001 128.001 158.323 125.276 158.323 121.422C158.323 117.568 158.55 114.764 159.004 113.01C159.476 111.272 160.132 110.028 160.98 109.276C162.586 108.017 164.585 107.367 166.624 107.442L171.272 108.006V93.472C171.244 91.8723 171.316 90.2724 171.486 88.6816C171.692 87.4734 172.147 86.3212 172.822 85.2983C174.041 82.9513 177.659 81.7778 183.678 81.7778C190.061 81.7778 193.866 83.5152 195.092 86.9899C195.56 88.4936 195.795 90.8897 195.798 94.1781V107.991C199.934 107.618 203.058 107.43 205.171 107.427C206.771 107.401 208.37 107.473 209.961 107.64C211.275 107.864 212.538 108.316 213.695 108.976C216.14 110.202 217.363 113.821 217.363 119.832C217.363 125.749 216.095 129.366 213.558 130.683C212.379 131.269 211.119 131.673 209.819 131.882C208.201 132.056 206.575 132.132 204.948 132.11Z" fill="#F14C18"/>
<path d="M226.512 159.944C226.944 159.067 227.547 158.285 228.285 157.644C229.023 157.003 229.881 156.516 230.81 156.21C232.733 155.553 235.741 155.224 239.832 155.224C243.923 155.224 246.883 156.117 248.712 157.902C250.547 159.69 251.463 162.509 251.46 166.36V168.615C251.488 170.286 251.417 171.957 251.247 173.619C251.025 174.974 250.582 176.283 249.936 177.495C248.432 180.205 244.837 181.559 239.151 181.559C233.465 181.559 229.699 180.645 227.853 178.816C226.021 176.987 225.105 173.441 225.105 168.178C225.105 164.521 225.574 161.776 226.512 159.944ZM245.4 143.525C240.654 144.467 235.769 144.467 231.023 143.525C229.235 143.058 227.99 142.211 227.289 140.985C226.671 139.992 226.24 138.893 226.019 137.744C225.849 136.293 225.778 134.831 225.806 133.37V88.6663C225.78 87.1833 225.851 85.7001 226.019 84.2264C226.237 83.0428 226.694 81.9159 227.36 80.9142C228.106 79.695 229.374 78.8264 231.165 78.3082C235.902 77.2719 240.806 77.2719 245.542 78.3082C247.323 78.8264 248.568 79.7187 249.276 80.9854C249.898 82.0282 250.328 83.1741 250.546 84.3686C250.709 85.8427 250.779 87.3257 250.754 88.8086V133.487C250.781 134.946 250.711 136.406 250.546 137.856C250.321 138.995 249.865 140.076 249.204 141.031C248.453 142.226 247.184 143.058 245.4 143.525Z" fill="#F14C18"/>
</svg>
